<mxfile host="app.diagrams.net" agent="Mozilla/5.0 (Macintosh; Intel Mac OS X 10_15_7) AppleWebKit/537.36 (KHTML, like Gecko) Chrome/135.0.0.0 Safari/537.36" version="26.2.14">
  <diagram name="Page-1" id="5QW2aNGvYX6HZRiQWkNF">
    <mxGraphModel dx="1426" dy="772" grid="1" gridSize="10" guides="1" tooltips="1" connect="1" arrows="1" fold="1" page="1" pageScale="1" pageWidth="827" pageHeight="1169" math="0" shadow="0">
      <root>
        <mxCell id="0" />
        <mxCell id="1" parent="0" />
        <mxCell id="3" value="Inicjalizacja funkcji" style="whiteSpace=wrap;strokeWidth=2;fontStyle=1;fontSize=16;" parent="1" vertex="1">
          <mxGeometry x="80" y="120" width="120" height="80" as="geometry" />
        </mxCell>
        <mxCell id="4" value="Wykonanie migawki stanu&#xa;funkcji" style="whiteSpace=wrap;strokeWidth=2;fontStyle=1;fontSize=16;" parent="1" vertex="1">
          <mxGeometry x="237" y="120" width="123" height="80" as="geometry" />
        </mxCell>
        <mxCell id="6" value="Odtworzenie stanu funkcji z migawki" style="whiteSpace=wrap;strokeWidth=2;fontStyle=1;fontSize=16;" parent="1" vertex="1">
          <mxGeometry x="480" y="120" width="120" height="80" as="geometry" />
        </mxCell>
        <mxCell id="7" value="Uruchomienie kodu funkcji" style="whiteSpace=wrap;strokeWidth=2;fontStyle=1;fontSize=16;" parent="1" vertex="1">
          <mxGeometry x="640" y="120" width="120" height="80" as="geometry" />
        </mxCell>
        <mxCell id="9" value="" style="curved=1;startArrow=none;endArrow=block;exitX=1;exitY=0.5;entryX=0;entryY=0.5;exitDx=0;exitDy=0;entryDx=0;entryDy=0;strokeWidth=3;" parent="1" source="3" target="4" edge="1">
          <mxGeometry relative="1" as="geometry">
            <Array as="points" />
          </mxGeometry>
        </mxCell>
        <mxCell id="11" value="" style="curved=1;startArrow=none;endArrow=block;exitX=1;exitY=0.5;entryX=0;entryY=0.5;exitDx=0;exitDy=0;entryDx=0;entryDy=0;strokeWidth=3;" parent="1" source="4" target="6" edge="1">
          <mxGeometry relative="1" as="geometry">
            <Array as="points" />
            <mxPoint x="128" y="374" as="sourcePoint" />
          </mxGeometry>
        </mxCell>
        <mxCell id="12" value="" style="curved=1;startArrow=none;endArrow=block;exitX=1;exitY=0.5;entryX=0;entryY=0.5;exitDx=0;exitDy=0;entryDx=0;entryDy=0;strokeWidth=3;" parent="1" source="6" target="7" edge="1">
          <mxGeometry relative="1" as="geometry">
            <Array as="points" />
          </mxGeometry>
        </mxCell>
        <mxCell id="5e1IPwGPCglOEEJBLwYM-14" value="&lt;b&gt;Publikacja nowej &lt;br&gt;wersji funkcji&lt;/b&gt;" style="text;html=1;align=center;verticalAlign=middle;resizable=0;points=[];autosize=1;strokeColor=#82b366;fillColor=#d5e8d4;" vertex="1" parent="1">
          <mxGeometry y="30" width="120" height="40" as="geometry" />
        </mxCell>
        <mxCell id="5e1IPwGPCglOEEJBLwYM-16" value="" style="endArrow=none;dashed=1;html=1;rounded=0;strokeWidth=4;fillColor=#d5e8d4;strokeColor=#82b366;" edge="1" parent="1">
          <mxGeometry width="50" height="50" relative="1" as="geometry">
            <mxPoint x="420" y="80" as="sourcePoint" />
            <mxPoint x="420" y="240" as="targetPoint" />
          </mxGeometry>
        </mxCell>
        <mxCell id="5e1IPwGPCglOEEJBLwYM-17" value="&lt;b&gt;Wywołanie funkcji&amp;nbsp;&lt;/b&gt;&lt;div&gt;&lt;b&gt;przez użytkownika&lt;/b&gt;&lt;/div&gt;" style="text;html=1;align=center;verticalAlign=middle;resizable=0;points=[];autosize=1;strokeColor=#82b366;fillColor=#d5e8d4;" vertex="1" parent="1">
          <mxGeometry x="355" y="30" width="130" height="40" as="geometry" />
        </mxCell>
        <mxCell id="5e1IPwGPCglOEEJBLwYM-18" value="" style="endArrow=none;html=1;rounded=0;exitX=0;exitY=0.5;exitDx=0;exitDy=0;strokeWidth=3;" edge="1" parent="1" source="3">
          <mxGeometry width="50" height="50" relative="1" as="geometry">
            <mxPoint x="380" y="320" as="sourcePoint" />
            <mxPoint x="40" y="160" as="targetPoint" />
          </mxGeometry>
        </mxCell>
        <mxCell id="5e1IPwGPCglOEEJBLwYM-13" value="" style="endArrow=none;dashed=1;html=1;rounded=0;strokeWidth=4;fillColor=#d5e8d4;strokeColor=#82b366;" edge="1" parent="1">
          <mxGeometry width="50" height="50" relative="1" as="geometry">
            <mxPoint x="60" y="80" as="sourcePoint" />
            <mxPoint x="60" y="240" as="targetPoint" />
          </mxGeometry>
        </mxCell>
      </root>
    </mxGraphModel>
  </diagram>
</mxfile>
